<?xml version="1.0" encoding="UTF-8" standalone="no"?>
<!DOCTYPE svg PUBLIC "-//W3C//DTD SVG 1.0//EN" "http://www.w3.org/TR/2001/REC-SVG-20010904/DTD/svg10.dtd">
<!-- 由 Microsoft Visio 2003, SVG Export, v1.0 生成 Flow.svg Page-1 -->
<svg xmlns="http://www.w3.org/2000/svg" xmlns:v="http://schemas.microsoft.com/visio/2003/SVGExtensions/" width="11.6929in"
		height="8.26772in" viewBox="0 0 841.89 595.276" xml:space="preserve" color-interpolation-filters="sRGB" class="st13">
	<v:documentProperties v:langID="2052" v:viewMarkup="false"/>

	<style type="text/css">
	<![CDATA[
		.st1 {visibility:visible}
		.st2 {stroke:#4979c0;stroke-dasharray:2.16,4.32;stroke-linecap:round;stroke-linejoin:round;stroke-opacity:0.2;stroke-width:2.16}
		.st3 {stroke:#000000;stroke-dasharray:2.16,4.32;stroke-linecap:round;stroke-linejoin:round;stroke-width:2.16}
		.st4 {marker-end:url(#mrkr13-29);stroke:#4979c0;stroke-linecap:round;stroke-linejoin:round;stroke-opacity:0.2;stroke-width:2.16}
		.st5 {fill:#4979c0;fill-opacity:0.2;stroke:#4979c0;stroke-opacity:0.2;stroke-width:0.46153846153846}
		.st6 {marker-end:url(#mrkr13-35);stroke:#000000;stroke-linecap:round;stroke-linejoin:round;stroke-width:2.16}
		.st7 {fill:#000000;fill-opacity:1;stroke:#000000;stroke-opacity:1;stroke-width:0.46153846153846}
		.st8 {marker-start:url(#mrkr13-53);stroke:#4979c0;stroke-linecap:round;stroke-linejoin:round;stroke-opacity:0.2;stroke-width:2.16}
		.st9 {marker-start:url(#mrkr13-59);stroke:#000000;stroke-linecap:round;stroke-linejoin:round;stroke-width:2.16}
		.st10 {fill:#4979c0;fill-opacity:0.2;stroke:none;stroke-linecap:round;stroke-linejoin:round;stroke-width:2.16}
		.st11 {fill:#3dc9b3;stroke:none;stroke-linecap:round;stroke-linejoin:round;stroke-width:2.16}
		.st12 {fill:#ffffff;font-family:Calibri;font-size:1.24999em}
		.st13 {fill:none;fill-rule:evenodd;font-size:12;overflow:visible;stroke-linecap:square;stroke-miterlimit:3}
	]]>
	</style>

	<defs id="Patterns_And_Gradients">
		<radialGradient id="grad36-7" v:fillPattern="36" v:foreground="#e8eef7" v:background="#b7c9e3" cx="0" cy="0" r="1">
			<stop offset="0" style="stop-color:#e8eef7;stop-opacity:1"/>
			<stop offset="1" style="stop-color:#b7c9e3;stop-opacity:1"/>
		</radialGradient>
	</defs>
	<defs id="Markers">
		<g id="lend13">
			<path d="M 3 1 L -0 0 L 3 -1 L 3 1 " style="stroke:none"/>
		</g>
		<marker id="mrkr13-29" class="st5" v:arrowType="13" v:arrowSize="2" v:setback="6.5" refX="-6.5" orient="auto"
				markerUnits="strokeWidth">
			<use xlink:href="#lend13" transform="scale(-2.1666666666667,-2.1666666666667) "/>
		</marker>
		<marker id="mrkr13-35" class="st7" v:arrowType="13" v:arrowSize="2" v:setback="6.5" refX="-6.5" orient="auto"
				markerUnits="strokeWidth">
			<use xlink:href="#lend13" transform="scale(-2.1666666666667,-2.1666666666667) "/>
		</marker>
		<marker id="mrkr13-53" class="st5" v:arrowType="13" v:arrowSize="2" v:setback="6.33333" refX="6.3333333333333"
				orient="auto" markerUnits="strokeWidth">
			<use xlink:href="#lend13" transform="scale(2.1666666666667) "/>
		</marker>
		<marker id="mrkr13-59" class="st7" v:arrowType="13" v:arrowSize="2" v:setback="6.33333" refX="6.3333333333333"
				orient="auto" markerUnits="strokeWidth">
			<use xlink:href="#lend13" transform="scale(2.1666666666667) "/>
		</marker>
	</defs>
	<g v:mID="0" v:index="1" v:groupContext="foregroundPage">
		<v:userDefs>
			<v:ud v:nameU="SchemeName" v:val="VT4(Default)"/>
		</v:userDefs>
		<title>Page-1</title>
		<v:pageProperties v:drawingScale="0.0393701" v:pageScale="0.0393701" v:drawingUnits="24" v:shadowOffsetX="4.25197"
				v:shadowOffsetY="-4.25197"/>
		<v:layer v:name="流程图" v:index="0"/>
		<v:layer v:name="连接线" v:index="1"/>
		<g id="shape18-1" v:mID="18" v:groupContext="shape" transform="translate(1162.16,148.225) rotate(89.2607)">
			<title>工作表.18</title>
			<g id="shadow18-2" v:groupContext="shadow" v:shadowOffsetX="4.25197" v:shadowOffsetY="-4.25197"
					transform="matrix(1,7.43695E-019,1.38913E-019,1,4.30647,-4.19676)" class="st1">
				<path d="M0 595.28 L43.94 595.28" class="st2"/>
			</g>
			<path d="M0 595.28 L43.94 595.28" class="st3"/>
		</g>
		<g id="shape17-9" v:mID="17" v:groupContext="shape" transform="translate(963.213,155.906) rotate(90)">
			<title>工作表.17</title>
			<g id="shadow17-10" v:groupContext="shadow" v:shadowOffsetX="4.25197" v:shadowOffsetY="-4.25197"
					transform="matrix(1,0,0,1,4.25197,-4.25197)" class="st1">
				<path d="M0 595.28 L252.28 595.28" class="st2"/>
			</g>
			<path d="M0 595.28 L252.28 595.28" class="st3"/>
		</g>
		<g id="shape16-16" v:mID="16" v:groupContext="shape" transform="translate(761.903,148.225) rotate(89.2607)">
			<title>工作表.16</title>
			<g id="shadow16-17" v:groupContext="shadow" v:shadowOffsetX="4.25197" v:shadowOffsetY="-4.25197"
					transform="matrix(1,7.43695E-019,1.38913E-019,1,4.30647,-4.19676)" class="st1">
				<path d="M0 595.28 L43.94 595.28" class="st2"/>
			</g>
			<path d="M0 595.28 L43.94 595.28" class="st3"/>
		</g>
		<g id="shape15-23" v:mID="15" v:groupContext="shape" transform="translate(425.197,-459.213)">
			<title>工作表.15</title>
			<g id="shadow15-24" v:groupContext="shadow" v:shadowOffsetX="4.25197" v:shadowOffsetY="-4.25197"
					transform="matrix(1,0,0,1,4.25197,4.25197)" class="st1">
				<path d="M0 595.28 L72.42 595.28" class="st4"/>
			</g>
			<path d="M0 595.28 L72.42 595.28" class="st6"/>
		</g>
		<g id="shape14-36" v:mID="14" v:groupContext="shape" transform="translate(225.354,-459.213)">
			<title>工作表.14</title>
			<g id="shadow14-37" v:groupContext="shadow" v:shadowOffsetX="4.25197" v:shadowOffsetY="-4.25197"
					transform="matrix(1,0,0,1,4.25197,4.25197)" class="st1">
				<path d="M0 595.28 L72.42 595.28" class="st4"/>
			</g>
			<path d="M0 595.28 L72.42 595.28" class="st6"/>
		</g>
		<g id="shape13-47" v:mID="13" v:groupContext="shape" transform="translate(1162.2,70.8661) rotate(90)">
			<title>工作表.13</title>
			<g id="shadow13-48" v:groupContext="shadow" v:shadowOffsetX="4.25197" v:shadowOffsetY="-4.25197"
					transform="matrix(1,0,0,1,4.25197,-4.25197)" class="st1">
				<path d="M13.68 595.28 L14.04 595.28 L42.52 595.28" class="st8"/>
			</g>
			<path d="M13.68 595.28 L14.04 595.28 L42.52 595.28" class="st9"/>
		</g>
		<g id="shape12-60" v:mID="12" v:groupContext="shape" transform="translate(762.52,70.8661) rotate(90)">
			<title>工作表.12</title>
			<g id="shadow12-61" v:groupContext="shadow" v:shadowOffsetX="4.25197" v:shadowOffsetY="-4.25197"
					transform="matrix(1,0,0,1,4.25197,-4.25197)" class="st1">
				<path d="M0 595.28 L28.48 595.28" class="st4"/>
			</g>
			<path d="M0 595.28 L28.48 595.28" class="st6"/>
		</g>
		<g id="shape1-71" v:mID="1" v:groupContext="shape" transform="translate(511.654,-524.409)">
			<title>工作表.1</title>
			<desc>Visualization</desc>
			<v:textBlock v:margins="rect(2,2,2,2)" v:tabSpace="42.5197"/>
			<v:textRect cx="56.6929" cy="574.016" width="113.39" height="42.5197"/>
			<g id="shadow1-72" v:groupContext="shadow" v:shadowOffsetX="4.25197" v:shadowOffsetY="-4.25197"
					transform="matrix(1,0,0,1,4.25197,4.25197)" class="st1">
				<rect x="0" y="552.756" width="113.386" height="42.5197" class="st10"/>
			</g>
			<rect x="0" y="552.756" width="113.386" height="42.5197" class="st11"/>
			<text x="18.13" y="578.52" class="st12" v:langID="2052"><v:paragraph v:horizAlign="1"/><v:tabList/>Visualization</text>		</g>
		<g id="shape2-76" v:mID="2" v:groupContext="shape" transform="translate(111.969,-439.37)">
			<title>工作表.2</title>
			<desc>Feature Selection</desc>
			<v:textBlock v:margins="rect(2,2,2,2)" v:tabSpace="42.5197"/>
			<v:textRect cx="56.6929" cy="574.016" width="113.39" height="42.5197"/>
			<g id="shadow2-77" v:groupContext="shadow" v:shadowOffsetX="4.25197" v:shadowOffsetY="-4.25197"
					transform="matrix(1,0,0,1,4.25197,4.25197)" class="st1">
				<rect x="0" y="552.756" width="113.386" height="42.5197" class="st10"/>
			</g>
			<rect x="0" y="552.756" width="113.386" height="42.5197" class="st11"/>
			<text x="3.5" y="578.52" class="st12" v:langID="2052"><v:paragraph v:horizAlign="1"/><v:tabList/>Feature Selection</text>		</g>
		<g id="shape3-81" v:mID="3" v:groupContext="shape" transform="translate(311.811,-439.37)">
			<title>工作表.3</title>
			<desc>Model Training</desc>
			<v:textBlock v:margins="rect(2,2,2,2)" v:tabSpace="42.5197"/>
			<v:textRect cx="56.6929" cy="574.016" width="113.39" height="42.5197"/>
			<g id="shadow3-82" v:groupContext="shadow" v:shadowOffsetX="4.25197" v:shadowOffsetY="-4.25197"
					transform="matrix(1,0,0,1,4.25197,4.25197)" class="st1">
				<rect x="0" y="552.756" width="113.386" height="42.5197" class="st10"/>
			</g>
			<rect x="0" y="552.756" width="113.386" height="42.5197" class="st11"/>
			<text x="10.53" y="578.52" class="st12" v:langID="2052"><v:paragraph v:horizAlign="1"/><v:tabList/>Model Training</text>		</g>
		<g id="shape4-86" v:mID="4" v:groupContext="shape" transform="translate(511.654,-439.37)">
			<title>工作表.4</title>
			<desc>Cross Validation</desc>
			<v:textBlock v:margins="rect(2,2,2,2)" v:tabSpace="42.5197"/>
			<v:textRect cx="56.6929" cy="574.016" width="113.39" height="42.5197"/>
			<g id="shadow4-87" v:groupContext="shadow" v:shadowOffsetX="4.25197" v:shadowOffsetY="-4.25197"
					transform="matrix(1,0,0,1,4.25197,4.25197)" class="st1">
				<rect x="0" y="552.756" width="113.386" height="42.5197" class="st10"/>
			</g>
			<rect x="0" y="552.756" width="113.386" height="42.5197" class="st11"/>
			<text x="7.62" y="578.52" class="st12" v:langID="2052"><v:paragraph v:horizAlign="1"/><v:tabList/>Cross Validation</text>		</g>
		<g id="shape5-91" v:mID="5" v:groupContext="shape" transform="translate(29.7638,-352.913)">
			<title>工作表.5</title>
			<desc>Recursive Feature Elimination</desc>
			<v:textBlock v:margins="rect(2,2,2,2)" v:tabSpace="42.5197"/>
			<v:textRect cx="97.7953" cy="574.016" width="195.6" height="42.5197"/>
			<g id="shadow5-92" v:groupContext="shadow" v:shadowOffsetX="4.25197" v:shadowOffsetY="-4.25197"
					transform="matrix(1,0,0,1,4.25197,4.25197)" class="st1">
				<rect x="0" y="552.756" width="195.591" height="42.5197" class="st10"/>
			</g>
			<rect x="0" y="552.756" width="195.591" height="42.5197" class="st11"/>
			<text x="7.06" y="578.52" class="st12" v:langID="2052"><v:paragraph v:horizAlign="1"/><v:tabList/>Recursive Feature Elimination</text>		</g>
		<g id="shape6-96" v:mID="6" v:groupContext="shape" transform="translate(511.654,-352.913)">
			<title>工作表.6</title>
			<desc>10-fold Cross Validation</desc>
			<v:textBlock v:margins="rect(2,2,2,2)" v:tabSpace="42.5197"/>
			<v:textRect cx="97.7953" cy="574.016" width="195.6" height="42.5197"/>
			<g id="shadow6-97" v:groupContext="shadow" v:shadowOffsetX="4.25197" v:shadowOffsetY="-4.25197"
					transform="matrix(1,0,0,1,4.25197,4.25197)" class="st1">
				<rect x="0" y="552.756" width="195.591" height="42.5197" class="st10"/>
			</g>
			<rect x="0" y="552.756" width="195.591" height="42.5197" class="st11"/>
			<text x="25.22" y="578.52" class="st12" v:langID="2052"><v:paragraph v:horizAlign="1"/><v:tabList/>10-fold Cross Validation</text>		</g>
		<g id="shape7-101" v:mID="7" v:groupContext="shape" transform="translate(270.709,-352.913)">
			<title>工作表.7</title>
			<desc>Support Vector Machine</desc>
			<v:textBlock v:margins="rect(2,2,2,2)" v:tabSpace="42.5197"/>
			<v:textRect cx="97.7953" cy="574.016" width="195.6" height="42.5197"/>
			<g id="shadow7-102" v:groupContext="shadow" v:shadowOffsetX="4.25197" v:shadowOffsetY="-4.25197"
					transform="matrix(1,0,0,1,4.25197,4.25197)" class="st1">
				<rect x="0" y="552.756" width="195.591" height="42.5197" class="st10"/>
			</g>
			<rect x="0" y="552.756" width="195.591" height="42.5197" class="st11"/>
			<text x="23.31" y="578.52" class="st12" v:langID="2052"><v:paragraph v:horizAlign="1"/><v:tabList/>Support Vector Machine</text>		</g>
		<g id="shape8-106" v:mID="8" v:groupContext="shape" transform="translate(111.969,-524.409)">
			<title>工作表.8</title>
			<desc>Data Cleaning</desc>
			<v:textBlock v:margins="rect(2,2,2,2)" v:tabSpace="42.5197"/>
			<v:textRect cx="56.6929" cy="574.016" width="113.39" height="42.5197"/>
			<g id="shadow8-107" v:groupContext="shadow" v:shadowOffsetX="4.25197" v:shadowOffsetY="-4.25197"
					transform="matrix(1,0,0,1,4.25197,4.25197)" class="st1">
				<rect x="0" y="552.756" width="113.386" height="42.5197" class="st10"/>
			</g>
			<rect x="0" y="552.756" width="113.386" height="42.5197" class="st11"/>
			<text x="14.52" y="578.52" class="st12" v:langID="2052"><v:paragraph v:horizAlign="1"/><v:tabList/>Data Cleaning</text>		</g>
		<g id="shape9-111" v:mID="9" v:groupContext="shape" transform="translate(270.709,-297.638)">
			<title>工作表.9</title>
			<desc>Random Forest</desc>
			<v:textBlock v:margins="rect(2,2,2,2)" v:tabSpace="42.5197"/>
			<v:textRect cx="97.7953" cy="574.016" width="195.6" height="42.5197"/>
			<g id="shadow9-112" v:groupContext="shadow" v:shadowOffsetX="4.25197" v:shadowOffsetY="-4.25197"
					transform="matrix(1,0,0,1,4.25197,4.25197)" class="st1">
				<rect x="0" y="552.756" width="195.591" height="42.5197" class="st10"/>
			</g>
			<rect x="0" y="552.756" width="195.591" height="42.5197" class="st11"/>
			<text x="51.42" y="578.52" class="st12" v:langID="2052"><v:paragraph v:horizAlign="1"/><v:tabList/>Random Forest</text>		</g>
		<g id="shape10-116" v:mID="10" v:groupContext="shape" transform="translate(270.709,-240.945)">
			<title>工作表.10</title>
			<desc>XGBoost Trees</desc>
			<v:textBlock v:margins="rect(2,2,2,2)" v:tabSpace="42.5197"/>
			<v:textRect cx="97.7953" cy="574.016" width="195.6" height="42.5197"/>
			<g id="shadow10-117" v:groupContext="shadow" v:shadowOffsetX="4.25197" v:shadowOffsetY="-4.25197"
					transform="matrix(1,0,0,1,4.25197,4.25197)" class="st1">
				<rect x="0" y="552.756" width="195.591" height="42.5197" class="st10"/>
			</g>
			<rect x="0" y="552.756" width="195.591" height="42.5197" class="st11"/>
			<text x="53.38" y="578.52" class="st12" v:langID="2052"><v:paragraph v:horizAlign="1"/><v:tabList/>XGBoost Trees</text>		</g>
		<g id="shape11-121" v:mID="11" v:groupContext="shape" transform="translate(270.709,-184.252)">
			<title>工作表.11</title>
			<desc>Artificial Neural Network</desc>
			<v:textBlock v:margins="rect(2,2,2,2)" v:tabSpace="42.5197"/>
			<v:textRect cx="97.7953" cy="574.016" width="195.6" height="42.5197"/>
			<g id="shadow11-122" v:groupContext="shadow" v:shadowOffsetX="4.25197" v:shadowOffsetY="-4.25197"
					transform="matrix(1,0,0,1,4.25197,4.25197)" class="st1">
				<rect x="0" y="552.756" width="195.591" height="42.5197" class="st10"/>
			</g>
			<rect x="0" y="552.756" width="195.591" height="42.5197" class="st11"/>
			<text x="22.14" y="578.52" class="st12" v:langID="2052"><v:paragraph v:horizAlign="1"/><v:tabList/>Artificial Neural Network</text>		</g>
	</g>
</svg>
